<svg version="1.2" preserveAspectRatio="xMidYMid meet" viewBox="102.00000000000001 233.99999961 445.2 135.599999774" zoomAndPan="magnify" xmlns:xlink="http://www.w3.org/1999/xlink" xmlns="http://www.w3.org/2000/svg" style="max-height: 500px" width="445.2" height="135.599999774"><defs><clipPath id="0eff3b5abc"><path d="M 117.964844 239.171875 L 228.386719 239.171875 L 228.386719 360.535156 L 117.964844 360.535156 Z M 117.964844 239.171875"/></clipPath><clipPath id="7ff92b47b7"><path d="M 219.902344 314.507812 L 143.359375 358.246094 C 138.109375 361.25 131.652344 361.226562 126.417969 358.191406 C 121.1875 355.152344 117.964844 349.558594 117.964844 343.507812 L 117.964844 256.484375 C 117.964844 250.433594 121.1875 244.839844 126.417969 241.800781 C 131.652344 238.765625 138.109375 238.742188 143.359375 241.746094 L 219.902344 285.484375 C 225.109375 288.460938 228.324219 293.996094 228.324219 299.996094 C 228.324219 305.992188 225.109375 311.53125 219.902344 314.507812 Z M 219.902344 314.507812"/></clipPath><clipPath id="3b13b05b5d"><path d="M 0.964844 0.507812 L 111.324219 0.507812 L 111.324219 121.480469 L 0.964844 121.480469 Z M 0.964844 0.507812"/></clipPath><clipPath id="9f1257bd17"><path d="M 102.902344 75.507812 L 26.359375 119.246094 C 21.109375 122.25 14.652344 122.226562 9.417969 119.191406 C 4.1875 116.152344 0.964844 110.558594 0.964844 104.507812 L 0.964844 17.484375 C 0.964844 11.433594 4.1875 5.839844 9.417969 2.800781 C 14.652344 -0.234375 21.109375 -0.257812 26.359375 2.746094 L 102.902344 46.484375 C 108.109375 49.460938 111.324219 54.996094 111.324219 60.996094 C 111.324219 66.992188 108.109375 72.53125 102.902344 75.507812 Z M 102.902344 75.507812"/></clipPath><radialGradient fy="16.974291" cy="16.974291" fx="12.275349" cx="12.275349" r="163.750236" gradientUnits="userSpaceOnUse" id="430a3547eb" gradientTransform="matrix(0,1,-1,0,128.299516,-11.769003)"><stop offset="0" style="stop-color:#4d8bfe;stop-opacity:1;"/><stop offset="0.0078125" style="stop-color:#4d8cfd;stop-opacity:1;"/><stop offset="0.0195312" style="stop-color:#4c8dfd;stop-opacity:1;"/><stop offset="0.03125" style="stop-color:#4c8efc;stop-opacity:1;"/><stop offset="0.0429688" style="stop-color:#4c8ffb;stop-opacity:1;"/><stop offset="0.0546875" style="stop-color:#4c90fb;stop-opacity:1;"/><stop offset="0.0664062" style="stop-color:#4b91fa;stop-opacity:1;"/><stop offset="0.078125" style="stop-color:#4b92fa;stop-opacity:1;"/><stop offset="0.0898438" style="stop-color:#4b93f9;stop-opacity:1;"/><stop offset="0.101562" style="stop-color:#4b93f8;stop-opacity:1;"/><stop offset="0.113281" style="stop-color:#4b94f8;stop-opacity:1;"/><stop offset="0.125" style="stop-color:#4a95f7;stop-opacity:1;"/><stop offset="0.136719" style="stop-color:#4a96f7;stop-opacity:1;"/><stop offset="0.148438" style="stop-color:#4a97f6;stop-opacity:1;"/><stop offset="0.160156" style="stop-color:#4a98f5;stop-opacity:1;"/><stop offset="0.171875" style="stop-color:#4999f5;stop-opacity:1;"/><stop offset="0.183594" style="stop-color:#499af4;stop-opacity:1;"/><stop offset="0.195312" style="stop-color:#499bf4;stop-opacity:1;"/><stop offset="0.207031" style="stop-color:#499cf3;stop-opacity:1;"/><stop offset="0.21875" style="stop-color:#489df2;stop-opacity:1;"/><stop offset="0.230469" style="stop-color:#489ef2;stop-opacity:1;"/><stop offset="0.242188" style="stop-color:#489ff1;stop-opacity:1;"/><stop offset="0.253906" style="stop-color:#489ff1;stop-opacity:1;"/><stop offset="0.261719" style="stop-color:#47a0f0;stop-opacity:1;"/><stop offset="0.269531" style="stop-color:#47a1f0;stop-opacity:1;"/><stop offset="0.277344" style="stop-color:#47a1ef;stop-opacity:1;"/><stop offset="0.285156" style="stop-color:#47a2ef;stop-opacity:1;"/><stop offset="0.292969" style="stop-color:#47a2ef;stop-opacity:1;"/><stop offset="0.300781" style="stop-color:#47a3ee;stop-opacity:1;"/><stop offset="0.308594" style="stop-color:#46a4ee;stop-opacity:1;"/><stop offset="0.316406" style="stop-color:#46a4ed;stop-opacity:1;"/><stop offset="0.324219" style="stop-color:#46a5ed;stop-opacity:1;"/><stop offset="0.332031" style="stop-color:#46a6ed;stop-opacity:1;"/><stop offset="0.339844" style="stop-color:#46a6ec;stop-opacity:1;"/><stop offset="0.347656" style="stop-color:#46a7ec;stop-opacity:1;"/><stop offset="0.355469" style="stop-color:#45a7eb;stop-opacity:1;"/><stop offset="0.363281" style="stop-color:#45a8eb;stop-opacity:1;"/><stop offset="0.371094" style="stop-color:#45a9eb;stop-opacity:1;"/><stop offset="0.378906" style="stop-color:#45a9ea;stop-opacity:1;"/><stop offset="0.386719" style="stop-color:#45aaea;stop-opacity:1;"/><stop offset="0.394531" style="stop-color:#45aae9;stop-opacity:1;"/><stop offset="0.402344" style="stop-color:#44abe9;stop-opacity:1;"/><stop offset="0.410156" style="stop-color:#44ace8;stop-opacity:1;"/><stop offset="0.417969" style="stop-color:#44ace8;stop-opacity:1;"/><stop offset="0.425781" style="stop-color:#44ade8;stop-opacity:1;"/><stop offset="0.433594" style="stop-color:#44aee7;stop-opacity:1;"/><stop offset="0.441406" style="stop-color:#44aee7;stop-opacity:1;"/><stop offset="0.449219" style="stop-color:#43afe6;stop-opacity:1;"/><stop offset="0.457031" style="stop-color:#43afe6;stop-opacity:1;"/><stop offset="0.464844" style="stop-color:#43b0e6;stop-opacity:1;"/><stop offset="0.472656" style="stop-color:#43b1e5;stop-opacity:1;"/><stop offset="0.480469" style="stop-color:#43b1e5;stop-opacity:1;"/><stop offset="0.488281" style="stop-color:#43b2e4;stop-opacity:1;"/><stop offset="0.496094" style="stop-color:#43b2e4;stop-opacity:1;"/><stop offset="0.503906" style="stop-color:#42b3e3;stop-opacity:1;"/><stop offset="0.515625" style="stop-color:#42b4e3;stop-opacity:1;"/><stop offset="0.527344" style="stop-color:#42b5e2;stop-opacity:1;"/><stop offset="0.539062" style="stop-color:#42b6e2;stop-opacity:1;"/><stop offset="0.550781" style="stop-color:#41b7e1;stop-opacity:1;"/><stop offset="0.5625" style="stop-color:#41b8e0;stop-opacity:1;"/><stop offset="0.574219" style="stop-color:#41b9e0;stop-opacity:1;"/><stop offset="0.585938" style="stop-color:#41badf;stop-opacity:1;"/><stop offset="0.597656" style="stop-color:#40bbdf;stop-opacity:1;"/><stop offset="0.609375" style="stop-color:#40bcde;stop-opacity:1;"/><stop offset="0.621094" style="stop-color:#40bddd;stop-opacity:1;"/><stop offset="0.632812" style="stop-color:#40bddd;stop-opacity:1;"/><stop offset="0.640625" style="stop-color:#3fbedc;stop-opacity:1;"/><stop offset="0.648438" style="stop-color:#3fbfdc;stop-opacity:1;"/><stop offset="0.65625" style="stop-color:#3fbfdc;stop-opacity:1;"/><stop offset="0.664062" style="stop-color:#3fc0db;stop-opacity:1;"/><stop offset="0.671875" style="stop-color:#3fc0db;stop-opacity:1;"/><stop offset="0.679688" style="stop-color:#3fc1da;stop-opacity:1;"/><stop offset="0.6875" style="stop-color:#3ec2da;stop-opacity:1;"/><stop offset="0.695312" style="stop-color:#3ec2da;stop-opacity:1;"/><stop offset="0.703125" style="stop-color:#3ec3d9;stop-opacity:1;"/><stop offset="0.710938" style="stop-color:#3ec3d9;stop-opacity:1;"/><stop offset="0.71875" style="stop-color:#3ec4d8;stop-opacity:1;"/><stop offset="0.726562" style="stop-color:#3ec5d8;stop-opacity:1;"/><stop offset="0.734375" style="stop-color:#3dc5d8;stop-opacity:1;"/><stop offset="0.742188" style="stop-color:#3dc6d7;stop-opacity:1;"/><stop offset="0.75" style="stop-color:#3dc7d7;stop-opacity:1;"/><stop offset="0.757812" style="stop-color:#3dc7d6;stop-opacity:1;"/><stop offset="0.769531" style="stop-color:#3dc8d6;stop-opacity:1;"/><stop offset="0.78125" style="stop-color:#3cc9d5;stop-opacity:1;"/><stop offset="0.792969" style="stop-color:#3ccad4;stop-opacity:1;"/><stop offset="0.804688" style="stop-color:#3ccbd4;stop-opacity:1;"/><stop offset="0.816406" style="stop-color:#3cccd3;stop-opacity:1;"/><stop offset="0.824219" style="stop-color:#3cccd3;stop-opacity:1;"/><stop offset="0.832031" style="stop-color:#3bcdd3;stop-opacity:1;"/><stop offset="0.839844" style="stop-color:#3bced2;stop-opacity:1;"/><stop offset="0.847656" style="stop-color:#3bced2;stop-opacity:1;"/><stop offset="0.855469" style="stop-color:#3bcfd1;stop-opacity:1;"/><stop offset="0.863281" style="stop-color:#3bd0d1;stop-opacity:1;"/><stop offset="0.871094" style="stop-color:#3bd0d1;stop-opacity:1;"/><stop offset="0.878906" style="stop-color:#3ad1d0;stop-opacity:1;"/><stop offset="0.890625" style="stop-color:#3ad2cf;stop-opacity:1;"/><stop offset="0.902344" style="stop-color:#3ad3cf;stop-opacity:1;"/><stop offset="0.914062" style="stop-color:#3ad4ce;stop-opacity:1;"/><stop offset="0.921875" style="stop-color:#3ad4ce;stop-opacity:1;"/><stop offset="0.929688" style="stop-color:#39d5cd;stop-opacity:1;"/><stop offset="0.9375" style="stop-color:#39d5cd;stop-opacity:1;"/><stop offset="0.945312" style="stop-color:#39d6cd;stop-opacity:1;"/><stop offset="0.957031" style="stop-color:#39d7cc;stop-opacity:1;"/><stop offset="0.964844" style="stop-color:#39d8cc;stop-opacity:1;"/><stop offset="0.972656" style="stop-color:#38d8cb;stop-opacity:1;"/><stop offset="0.984375" style="stop-color:#38d9cb;stop-opacity:1;"/><stop offset="0.992188" style="stop-color:#38daca;stop-opacity:1;"/><stop offset="1" style="stop-color:#38daca;stop-opacity:1;"/></radialGradient><clipPath id="573be606b3"><rect height="122" y="0" width="112" x="0"/></clipPath><clipPath id="e4aabae84b"><path d="M 138.863281 273.648438 L 182.921875 273.648438 L 182.921875 317.738281 L 138.863281 317.738281 Z M 138.863281 273.648438"/></clipPath><clipPath id="503a68c247"><path d="M 136.796875 306.386719 L 150.214844 306.386719 L 150.214844 319.773438 L 136.796875 319.773438 Z M 136.796875 306.386719"/></clipPath></defs><g id="112f109df8"><g clip-path="url(#0eff3b5abc)" clip-rule="nonzero"><g clip-path="url(#7ff92b47b7)" clip-rule="nonzero"><g transform="matrix(1,0,0,1,117,239)"><g clip-path="url(#573be606b3)"><g clip-path="url(#3b13b05b5d)" clip-rule="nonzero"><g clip-path="url(#9f1257bd17)" clip-rule="nonzero"><path d="M 111.324219 0.507812 L 0.964844 0.507812 L 0.964844 121.480469 L 111.324219 121.480469 Z M 111.324219 0.507812" style="stroke:none;fill-rule:nonzero;fill:url(#430a3547eb);"/></g></g></g></g></g></g><path d="M 161.710938 317.671875 C 159.183594 317.671875 157.132812 315.625 157.132812 313.097656 C 157.132812 305.566406 151.003906 299.4375 143.476562 299.4375 C 140.945312 299.4375 138.898438 297.390625 138.898438 294.859375 C 138.898438 292.332031 140.945312 290.28125 143.476562 290.28125 C 156.054688 290.28125 166.289062 300.515625 166.289062 313.097656 C 166.289062 315.625 164.242188 317.671875 161.710938 317.671875" style="stroke:none;fill-rule:nonzero;fill:#7164fd;fill-opacity:1;"/><g clip-path="url(#e4aabae84b)" clip-rule="nonzero"><path d="M 178.347656 317.671875 C 175.8125 317.671875 173.765625 315.625 173.765625 313.097656 C 173.765625 296.394531 160.179688 282.808594 143.476562 282.808594 C 140.945312 282.808594 138.898438 280.757812 138.898438 278.226562 C 138.898438 275.699219 140.945312 273.648438 143.476562 273.648438 C 165.226562 273.648438 182.921875 291.347656 182.921875 313.097656 C 182.921875 315.625 180.871094 317.671875 178.347656 317.671875" style="stroke:none;fill-rule:nonzero;fill:#7164fd;fill-opacity:1;"/></g><g clip-path="url(#503a68c247)" clip-rule="nonzero"><path d="M 150.15625 313.097656 C 150.15625 316.785156 147.164062 319.773438 143.476562 319.773438 C 139.785156 319.773438 136.796875 316.785156 136.796875 313.097656 C 136.796875 309.40625 139.785156 306.417969 143.476562 306.417969 C 147.164062 306.417969 150.15625 309.40625 150.15625 313.097656" style="stroke:none;fill-rule:nonzero;fill:#7164fd;fill-opacity:1;"/></g><g style="fill:#ffffff;fill-opacity:1;"><g transform="translate(245.305567, 321.300035)"><path d="M 20.390625 -47.046875 C 22.890625 -47.046875 25.332031 -46.679688 27.71875 -45.953125 C 30.101562 -45.222656 31.878906 -44.503906 33.046875 -43.796875 L 34.71875 -42.671875 L 30.46875 -34.265625 C 30.125 -34.492188 29.65625 -34.785156 29.0625 -35.140625 C 28.46875 -35.492188 27.347656 -35.96875 25.703125 -36.5625 C 24.054688 -37.164062 22.523438 -37.46875 21.109375 -37.46875 C 19.359375 -37.46875 18.003906 -37.09375 17.046875 -36.34375 C 16.097656 -35.59375 15.625 -34.582031 15.625 -33.3125 C 15.625 -32.6875 15.847656 -32.101562 16.296875 -31.5625 C 16.742188 -31.019531 17.507812 -30.4375 18.59375 -29.8125 C 19.675781 -29.195312 20.628906 -28.703125 21.453125 -28.328125 C 22.273438 -27.960938 23.539062 -27.40625 25.25 -26.65625 C 28.238281 -25.382812 30.785156 -23.65625 32.890625 -21.46875 C 35.003906 -19.289062 36.0625 -16.820312 36.0625 -14.0625 C 36.0625 -11.40625 35.582031 -9.085938 34.625 -7.109375 C 33.675781 -5.128906 32.367188 -3.578125 30.703125 -2.453125 C 29.046875 -1.335938 27.207031 -0.507812 25.1875 0.03125 C 23.175781 0.570312 20.992188 0.84375 18.640625 0.84375 C 16.628906 0.84375 14.648438 0.632812 12.703125 0.21875 C 10.765625 -0.1875 9.140625 -0.695312 7.828125 -1.3125 C 6.523438 -1.925781 5.351562 -2.53125 4.3125 -3.125 C 3.269531 -3.726562 2.503906 -4.234375 2.015625 -4.640625 L 1.28125 -5.265625 L 6.546875 -14.109375 C 6.992188 -13.734375 7.609375 -13.253906 8.390625 -12.671875 C 9.179688 -12.097656 10.570312 -11.328125 12.5625 -10.359375 C 14.5625 -9.390625 16.328125 -8.90625 17.859375 -8.90625 C 22.304688 -8.90625 24.53125 -10.414062 24.53125 -13.4375 C 24.53125 -14.070312 24.367188 -14.660156 24.046875 -15.203125 C 23.734375 -15.742188 23.175781 -16.285156 22.375 -16.828125 C 21.570312 -17.367188 20.859375 -17.796875 20.234375 -18.109375 C 19.617188 -18.429688 18.613281 -18.914062 17.21875 -19.5625 C 15.820312 -20.21875 14.785156 -20.71875 14.109375 -21.0625 C 11.304688 -22.4375 9.140625 -24.160156 7.609375 -26.234375 C 6.078125 -28.304688 5.3125 -30.535156 5.3125 -32.921875 C 5.3125 -37.066406 6.84375 -40.457031 9.90625 -43.09375 C 12.96875 -45.726562 16.460938 -47.046875 20.390625 -47.046875 Z M 20.390625 -47.046875" style="stroke:none"/></g></g><g style="fill:#ffffff;fill-opacity:1;"><g transform="translate(282.93232, 321.300035)"><path d="M 5.046875 -28.734375 L 5.046875 -39.421875 L 14.953125 -39.421875 L 14.953125 -28.734375 L 21 -28.734375 L 21 -21.171875 L 14.953125 -21.171875 L 14.953125 -12.046875 C 14.953125 -9.390625 15.695312 -8.0625 17.1875 -8.0625 C 17.5625 -8.0625 17.953125 -8.132812 18.359375 -8.28125 C 18.773438 -8.4375 19.09375 -8.585938 19.3125 -8.734375 L 19.65625 -8.953125 L 22.125 -0.953125 C 19.988281 0.242188 17.5625 0.84375 14.84375 0.84375 C 12.976562 0.84375 11.375 0.515625 10.03125 -0.140625 C 8.6875 -0.796875 7.664062 -1.671875 6.96875 -2.765625 C 6.28125 -3.867188 5.785156 -5.023438 5.484375 -6.234375 C 5.191406 -7.453125 5.046875 -8.753906 5.046875 -10.140625 L 5.046875 -21.171875 L 0.890625 -21.171875 L 0.890625 -28.734375 Z M 5.046875 -28.734375" style="stroke:none"/></g></g><g style="fill:#ffffff;fill-opacity:1;"><g transform="translate(305.049228, 321.300035)"><path d="M 3.359375 0 L 3.359375 -28.734375 L 13.265625 -28.734375 L 13.265625 -24.578125 L 13.390625 -24.578125 C 13.460938 -24.734375 13.582031 -24.921875 13.75 -25.140625 C 13.914062 -25.367188 14.28125 -25.757812 14.84375 -26.3125 C 15.40625 -26.875 16 -27.378906 16.625 -27.828125 C 17.257812 -28.273438 18.082031 -28.675781 19.09375 -29.03125 C 20.101562 -29.382812 21.128906 -29.5625 22.171875 -29.5625 C 23.253906 -29.5625 24.316406 -29.410156 25.359375 -29.109375 C 26.410156 -28.816406 27.175781 -28.519531 27.65625 -28.21875 L 28.453125 -27.78125 L 24.296875 -19.375 C 23.066406 -20.414062 21.351562 -20.9375 19.15625 -20.9375 C 17.957031 -20.9375 16.925781 -20.675781 16.0625 -20.15625 C 15.207031 -19.632812 14.601562 -19 14.25 -18.25 C 13.894531 -17.507812 13.640625 -16.875 13.484375 -16.34375 C 13.335938 -15.820312 13.265625 -15.414062 13.265625 -15.125 L 13.265625 0 Z M 3.359375 0" style="stroke:none"/></g></g><g style="fill:#ffffff;fill-opacity:1;"><g transform="translate(332.597364, 321.300035)"><path d="M 32.421875 -12.984375 L 11.59375 -12.984375 C 11.59375 -10.972656 12.242188 -9.484375 13.546875 -8.515625 C 14.859375 -7.546875 16.28125 -7.0625 17.8125 -7.0625 C 19.414062 -7.0625 20.679688 -7.273438 21.609375 -7.703125 C 22.546875 -8.128906 23.613281 -8.976562 24.8125 -10.25 L 31.96875 -6.65625 C 28.988281 -1.65625 24.023438 0.84375 17.078125 0.84375 C 12.742188 0.84375 9.023438 -0.640625 5.921875 -3.609375 C 2.828125 -6.578125 1.28125 -10.148438 1.28125 -14.328125 C 1.28125 -18.515625 2.828125 -22.097656 5.921875 -25.078125 C 9.023438 -28.066406 12.742188 -29.5625 17.078125 -29.5625 C 21.628906 -29.5625 25.332031 -28.242188 28.1875 -25.609375 C 31.050781 -22.984375 32.484375 -19.226562 32.484375 -14.34375 C 32.484375 -13.664062 32.460938 -13.210938 32.421875 -12.984375 Z M 11.875 -18.484375 L 22.796875 -18.484375 C 22.566406 -19.972656 21.972656 -21.117188 21.015625 -21.921875 C 20.066406 -22.722656 18.847656 -23.125 17.359375 -23.125 C 15.710938 -23.125 14.40625 -22.691406 13.4375 -21.828125 C 12.46875 -20.972656 11.945312 -19.859375 11.875 -18.484375 Z M 11.875 -18.484375" style="stroke:none"/></g></g><g style="fill:#ffffff;fill-opacity:1;"><g transform="translate(366.080669, 321.300035)"><path d="M 5.3125 -3.546875 C 2.625 -6.484375 1.28125 -10.078125 1.28125 -14.328125 C 1.28125 -18.585938 2.625 -22.191406 5.3125 -25.140625 C 8.007812 -28.085938 11.425781 -29.5625 15.5625 -29.5625 C 19.375 -29.5625 22.507812 -28.367188 24.96875 -25.984375 L 24.96875 -28.734375 L 34.890625 -28.734375 L 34.890625 0 L 25.09375 0 L 25.09375 -3.25 L 24.96875 -3.25 C 22.507812 -0.519531 19.375 0.84375 15.5625 0.84375 C 11.425781 0.84375 8.007812 -0.617188 5.3125 -3.546875 Z M 13.75 -19.203125 C 12.457031 -17.929688 11.8125 -16.304688 11.8125 -14.328125 C 11.8125 -12.359375 12.425781 -10.742188 13.65625 -9.484375 C 14.894531 -8.234375 16.519531 -7.609375 18.53125 -7.609375 C 20.476562 -7.609375 22.078125 -8.242188 23.328125 -9.515625 C 24.578125 -10.785156 25.203125 -12.394531 25.203125 -14.34375 C 25.203125 -16.3125 24.554688 -17.929688 23.265625 -19.203125 C 21.984375 -20.472656 20.40625 -21.109375 18.53125 -21.109375 C 16.632812 -21.109375 15.039062 -20.472656 13.75 -19.203125 Z M 13.75 -19.203125" style="stroke:none"/></g></g><g style="fill:#ffffff;fill-opacity:1;"><g transform="translate(404.323332, 321.300035)"><path d="M 3.359375 0 L 3.359375 -28.734375 L 13.265625 -28.734375 L 13.265625 -25.703125 L 13.390625 -25.703125 C 15.960938 -28.273438 18.703125 -29.5625 21.609375 -29.5625 C 23.703125 -29.5625 25.660156 -29.128906 27.484375 -28.265625 C 29.316406 -27.410156 30.703125 -26.085938 31.640625 -24.296875 C 34.554688 -27.804688 37.726562 -29.5625 41.15625 -29.5625 C 44.21875 -29.5625 46.847656 -28.703125 49.046875 -26.984375 C 51.253906 -25.273438 52.359375 -22.585938 52.359375 -18.921875 L 52.359375 0 L 42.453125 0 L 42.453125 -16.234375 C 42.453125 -17.765625 42.03125 -19.039062 41.1875 -20.0625 C 40.34375 -21.09375 39.082031 -21.609375 37.40625 -21.609375 C 35.945312 -21.609375 34.832031 -21.171875 34.0625 -20.296875 C 33.300781 -19.421875 32.882812 -18.367188 32.8125 -17.140625 L 32.8125 0 L 22.90625 0 L 22.90625 -16.234375 C 22.90625 -17.765625 22.484375 -19.039062 21.640625 -20.0625 C 20.804688 -21.09375 19.546875 -21.609375 17.859375 -21.609375 C 16.328125 -21.609375 15.175781 -21.132812 14.40625 -20.1875 C 13.644531 -19.238281 13.265625 -18.109375 13.265625 -16.796875 L 13.265625 0 Z M 3.359375 0" style="stroke:none"/></g></g><g style="fill:#ffffff;fill-opacity:1;"><g transform="translate(459.475647, 321.300035)"><path d="M 4.3125 -44.75 C 5.46875 -45.90625 6.847656 -46.484375 8.453125 -46.484375 C 10.054688 -46.484375 11.4375 -45.90625 12.59375 -44.75 C 13.757812 -43.59375 14.34375 -42.207031 14.34375 -40.59375 C 14.34375 -38.988281 13.757812 -37.609375 12.59375 -36.453125 C 11.4375 -35.296875 10.054688 -34.71875 8.453125 -34.71875 C 6.847656 -34.71875 5.46875 -35.296875 4.3125 -36.453125 C 3.15625 -37.609375 2.578125 -38.988281 2.578125 -40.59375 C 2.578125 -42.207031 3.15625 -43.59375 4.3125 -44.75 Z M 3.359375 -28.734375 L 3.359375 0 L 13.265625 0 L 13.265625 -28.734375 Z M 3.359375 -28.734375" style="stroke:none"/></g></g><g style="fill:#ffffff;fill-opacity:1;"><g transform="translate(476.385276, 321.300035)"><path d="M 5.046875 -28.734375 L 5.046875 -34.828125 C 5.078125 -39.117188 6.082031 -42.550781 8.0625 -45.125 C 10.039062 -47.707031 12.785156 -49 16.296875 -49 C 17.785156 -49 19.210938 -48.785156 20.578125 -48.359375 C 21.941406 -47.929688 22.921875 -47.492188 23.515625 -47.046875 L 24.46875 -46.421875 L 21 -39.421875 C 20.101562 -39.941406 19.113281 -40.203125 18.03125 -40.203125 C 16.800781 -40.203125 15.976562 -39.78125 15.5625 -38.9375 C 15.15625 -38.101562 14.953125 -36.640625 14.953125 -34.546875 L 14.953125 -28.734375 L 21.5625 -28.734375 L 21.5625 -21.171875 L 14.953125 -21.171875 L 14.953125 0 L 5.046875 0 L 5.046875 -21.171875 L 0.890625 -21.171875 L 0.890625 -28.734375 Z M 5.046875 -28.734375" style="stroke:none"/></g></g><g style="fill:#ffffff;fill-opacity:1;"><g transform="translate(497.046369, 321.300035)"><path d="M 25.140625 -28.734375 L 36.5625 -28.734375 L 14 14.5625 L 2.578125 14.5625 L 12.484375 -4.484375 L -1.125 -28.734375 L 10.296875 -28.734375 L 18.3125 -14 Z M 25.140625 -28.734375" style="stroke:none"/></g></g></g></svg>